<?xml version="1.0" encoding="UTF-8" standalone="no"?><!DOCTYPE svg PUBLIC "-//W3C//DTD SVG 1.1//EN" "http://www.w3.org/Graphics/SVG/1.1/DTD/svg11.dtd"><svg width="100%" height="100%" viewBox="0 0 597 613" version="1.1" xmlns="http://www.w3.org/2000/svg" xmlns:xlink="http://www.w3.org/1999/xlink" xml:space="preserve" xmlns:serif="http://www.serif.com/" style="fill-rule:evenodd;clip-rule:evenodd;stroke-linecap:round;stroke-linejoin:round;stroke-miterlimit:1.5;"><g><path d="M590.068,308.062c-0,-54.586 -44.318,-98.904 -98.904,-98.904l-384.511,0c-54.586,0 -98.904,44.318 -98.904,98.904l0,197.809c0,54.586 44.318,98.904 98.904,98.904l384.511,-0c54.586,-0 98.904,-44.318 98.904,-98.904l-0,-197.809Z" style="fill:#c0181c;stroke:#000;stroke-width:12.5px;"/><path d="M11.117,339.663l290.629,173.615l287.39,-175.703" style="fill:none;stroke:#000;stroke-width:12.5px;"/><path d="M89.886,7.641l424.631,-0l3.655,372.934l-217.118,133.737l-210.707,-127.046l-0.461,-379.625Z" style="fill:#fff;stroke:#000;stroke-width:12.5px;"/><path d="M399.499,123.741l34.981,36.604l-174.64,182.748l-88.705,-92.823l35.618,-37.271l52.678,55.124l140.068,-144.382Z" style="fill:none;stroke:#6ac7b1;stroke-width:23.44px;"/><path d="M173.751,440.102l-97.25,97.25" style="fill:none;stroke:#000;stroke-width:12.5px;"/><path d="M425.836,446.426l97.25,97.25" style="fill:none;stroke:#000;stroke-width:12.5px;"/></g></svg>