<?xml version="1.0" encoding="UTF-8" standalone="no"?><!DOCTYPE svg PUBLIC "-//W3C//DTD SVG 1.1//EN" "http://www.w3.org/Graphics/SVG/1.1/DTD/svg11.dtd"><svg width="100%" height="100%" viewBox="0 0 997 1000" version="1.1" xmlns="http://www.w3.org/2000/svg" xmlns:xlink="http://www.w3.org/1999/xlink" xml:space="preserve" xmlns:serif="http://www.serif.com/" style="fill-rule:evenodd;clip-rule:evenodd;stroke-linecap:square;stroke-linejoin:round;stroke-miterlimit:1.5;"><rect id="Logo-noir" serif:id="Logo noir" x="2.68" y="0.577" width="993.984" height="997.256" style="fill:none;"/><g><path d="M500.867,12.859c266.967,-0.943 484.477,215.035 485.421,482.002c0.943,266.968 -215.035,484.478 -482.003,485.421c-266.968,0.943 -484.477,-215.035 -485.421,-482.002c-0.943,-266.968 215.035,-484.478 482.003,-485.421Z"/><path d="M181.331,708.337l256.548,-515.916l181.608,275.141l-159.145,-2.46" style="fill:none;stroke:#fff;stroke-width:9.37px;"/><path d="M548.637,197.115l1.803,510.25l287.889,-1.017" style="fill:none;stroke:#51654e;stroke-width:9.37px;"/><path d="M548.637,197.115l1.803,510.25l287.889,-1.017" style="fill:none;stroke:#fff;stroke-width:9.37px;"/><path d="M422.767,426.721c-21.329,0.076 -38.584,17.453 -38.508,38.782c0.075,21.33 17.453,38.585 38.782,38.51c21.329,-0.076 38.584,-17.454 38.509,-38.783c-0.076,-21.329 -17.453,-38.584 -38.782,-38.509l-0.001,0Zm0.056,15.625c12.705,-0.045 23.057,10.234 23.102,22.94c0.045,12.705 -10.234,23.057 -22.939,23.102c-12.706,0.045 -23.058,-10.234 -23.103,-22.94c-0.044,-12.705 10.234,-23.057 22.94,-23.102Z" style="fill:#c0181c;"/></g></svg>