<?xml version="1.0" encoding="UTF-8" standalone="no"?><!DOCTYPE svg PUBLIC "-//W3C//DTD SVG 1.1//EN" "http://www.w3.org/Graphics/SVG/1.1/DTD/svg11.dtd"><svg width="100%" height="100%" viewBox="0 0 422 438" version="1.1" xmlns="http://www.w3.org/2000/svg" xmlns:xlink="http://www.w3.org/1999/xlink" xml:space="preserve" xmlns:serif="http://www.serif.com/" style="fill-rule:evenodd;clip-rule:evenodd;stroke-linecap:round;stroke-linejoin:round;stroke-miterlimit:1.5;"><g id="Corona"></g><g id="Vanilla-vct" serif:id="Vanilla vct"></g><g id="All-set" serif:id="All set"></g><g id="Attention-" serif:id="Attention!"></g><g><g><path d="M214.605,210.591c-53.243,-0 -99.471,4.226 -122.418,10.344c-7.613,2.029 -12.837,4.414 -15.328,6.761c-1.813,1.708 -2.561,3.55 -2.561,5.326c-0,1.777 0.748,3.619 2.561,5.327c2.491,2.347 7.715,4.731 15.328,6.761c22.947,6.118 69.175,10.344 122.418,10.344c53.243,0 99.471,-4.226 122.418,-10.344c7.612,-2.03 12.836,-4.414 15.328,-6.761c1.813,-1.708 2.561,-3.55 2.561,-5.327c-0,-1.776 -0.748,-3.618 -2.561,-5.326c-2.492,-2.347 -7.716,-4.732 -15.328,-6.761c-22.947,-6.118 -69.175,-10.344 -122.418,-10.344Zm-0,3.517c75.496,-0 136.79,8.475 136.79,18.914c-0,10.44 -61.294,18.915 -136.79,18.915c-75.497,0 -136.79,-8.475 -136.79,-18.915c-0,-10.439 61.293,-18.914 136.79,-18.914Z"/></g><g><path d="M180.327,93.024c67.207,-38.787 124.121,-66.203 127.017,-61.186c2.896,5.017 -49.317,40.581 -116.524,79.367c-67.206,38.787 -124.121,66.203 -127.016,61.186c-2.896,-5.017 49.317,-40.581 116.523,-79.367Z" style="fill:none;stroke:#000;stroke-width:3.43px;"/><path d="M307.344,31.838l18.736,32.552c0,0 -129.109,103.474 -243.535,139.319" style="fill:none;stroke:#000;stroke-width:3.23px;"/><path d="M64.027,172.137l18.518,31.572" style="fill:none;stroke:#000;stroke-width:3.23px;"/></g><g><path d="M153.292,288.048l-9.75,0l-1.785,4.189l7.347,-0l-0,44.838l4.188,0l0,-49.027Z" style="fill-rule:nonzero;"/><path d="M175.815,299.241l4.188,-0c0.687,-3.64 3.845,-7.553 10.162,-7.553c5.7,-0 9.682,3.639 9.682,8.926c0,6.249 -3.776,11.261 -7.072,15.175l-18.059,21.286l29.663,0l0,-4.189l-20.393,0l12.085,-14.419c4.326,-5.081 7.965,-10.3 7.965,-17.853c-0,-7.828 -5.768,-13.115 -13.871,-13.115c-8.995,0 -13.321,5.768 -14.35,11.742Z" style="fill-rule:nonzero;"/><path d="M244.411,286.881l-12.772,50.194l4.189,0l9.544,-37.422l15.518,38.383l15.587,-38.383l9.476,37.422l4.257,0l-12.84,-50.194l-16.48,40.787l-16.479,-40.787Z" style="fill-rule:nonzero;"/></g><path d="M78.843,358.339c-0.834,-41.631 -1.669,-83.263 -2.503,-124.895" style="fill:none;stroke:#000;stroke-width:3.53px;stroke-linecap:square;"/><path d="M353.151,232.304l0,126.969" style="fill:none;stroke:#000;stroke-width:3.54px;"/><g><clipPath id="_clip1"><rect x="77.206" y="350.81" width="277.527" height="37.178"/></clipPath><g clip-path="url(#_clip1)"><path d="M215.97,318.791c-54.315,0 -101.464,6.294 -124.873,15.348c-6.694,2.588 -11.583,5.488 -14.47,8.435c-2.668,2.724 -3.876,5.628 -3.876,8.507c-0,2.88 1.208,5.784 3.876,8.507c2.887,2.947 7.776,5.847 14.47,8.436c23.409,9.053 70.558,15.347 124.873,15.347c54.314,-0 101.463,-6.294 124.872,-15.347c6.694,-2.589 11.583,-5.489 14.47,-8.436c2.669,-2.723 3.877,-5.627 3.877,-8.507c-0,-2.879 -1.208,-5.783 -3.877,-8.507c-2.887,-2.947 -7.776,-5.847 -14.47,-8.435c-23.409,-9.054 -70.558,-15.348 -124.872,-15.348Zm-0,4.456c76.585,0 138.763,12.472 138.763,27.834c-0,15.362 -62.178,27.834 -138.763,27.834c-76.586,0 -138.764,-12.472 -138.764,-27.834c0,-15.362 62.178,-27.834 138.764,-27.834Z"/></g></g></g></svg>