<?xml version="1.0" encoding="UTF-8" standalone="no"?><!DOCTYPE svg PUBLIC "-//W3C//DTD SVG 1.1//EN" "http://www.w3.org/Graphics/SVG/1.1/DTD/svg11.dtd"><svg width="100%" height="100%" viewBox="0 0 441 413" version="1.1" xmlns="http://www.w3.org/2000/svg" xmlns:xlink="http://www.w3.org/1999/xlink" xml:space="preserve" xmlns:serif="http://www.serif.com/" style="fill-rule:evenodd;clip-rule:evenodd;stroke-linecap:square;stroke-linejoin:round;stroke-miterlimit:1.5;"><rect id="Fun-facts-140x131" serif:id="Fun facts 140x131" x="0.966" y="0.907" width="437.538" height="409.505" style="fill:none;"/><clipPath id="_clip1"><rect x="0.966" y="0.907" width="437.538" height="409.505"/></clipPath><g clip-path="url(#_clip1)"><rect x="4.796" y="0.296" width="437.629" height="409.473" style="fill:#c0181c;stroke:#c11c21;stroke-width:9.38px;"/><g><path d="M325.73,230.368c30.066,0 54.476,24.41 54.476,54.476c0,30.066 -24.41,54.476 -54.476,54.476c-30.066,0 -54.476,-24.41 -54.476,-54.476c0,-30.066 24.41,-54.476 54.476,-54.476Zm0,12.5c23.167,0 41.976,18.809 41.976,41.976c0,23.167 -18.809,41.976 -41.976,41.976c-23.167,0 -41.976,-18.809 -41.976,-41.976c0,-23.167 18.809,-41.976 41.976,-41.976Z" style="fill:#fefffe;"/><path d="M355.713,238.468c15.013,9.896 24.93,26.915 24.93,46.234c0,30.533 -24.773,55.322 -55.287,55.322c-19.303,-0 -36.309,-9.92 -46.197,-24.936l-208.82,-0l-0,-181.115l285.374,0l-0,104.495Zm-12.5,0c-0,4.203 2.111,8.124 5.62,10.437c11.626,7.663 19.31,20.838 19.31,35.797c0,23.632 -19.17,42.822 -42.787,42.822c-14.942,-0 -28.103,-7.687 -35.757,-19.311c-2.313,-3.512 -6.235,-5.625 -10.44,-5.625l-196.32,-0c-0,-0 -0,-156.115 -0,-156.115c-0,0 260.374,0 260.374,0c-0,0 -0,91.995 -0,91.995Z" style="fill:#fefffe;"/><path d="M349.327,141.26l0,-34.164l-174.583,-0l-25.658,-24.894l-72.462,-0l-0,57.054" style="fill:none;stroke:#fefffe;stroke-width:12.53px;"/><path d="M325.217,280.115l-0,30.431" style="fill:none;stroke:#000;stroke-width:12.5px;stroke-linecap:round;"/><ellipse cx="325.858" cy="260.875" rx="6.485" ry="6.456"/></g></g></svg>