<?xml version="1.0" encoding="UTF-8" standalone="no"?><!DOCTYPE svg PUBLIC "-//W3C//DTD SVG 1.1//EN" "http://www.w3.org/Graphics/SVG/1.1/DTD/svg11.dtd"><svg width="100%" height="100%" viewBox="0 0 266 388" version="1.1" xmlns="http://www.w3.org/2000/svg" xmlns:xlink="http://www.w3.org/1999/xlink" xml:space="preserve" xmlns:serif="http://www.serif.com/" style="fill-rule:evenodd;clip-rule:evenodd;stroke-linejoin:round;stroke-miterlimit:2;"><g><path d="M93.257,209.462l0.108,-105.477l80.292,-0l-0.317,117.141l-0,-11.576l80.098,133.764c4.228,7.059 4.329,15.842 0.265,22.996c-4.065,7.155 -11.668,11.576 -19.907,11.576c-50.27,-0 -150.616,-0.1 -200.886,-0.1c-8.239,-0 -15.842,-4.421 -19.907,-11.576c-4.065,-7.154 -3.963,-15.937 0.265,-22.996l79.989,-133.752Z" style="fill:url(#_Linear1);"/><rect x="82.677" y="96.427" width="100.622" height="5.517" style="fill:#d06e6f;"/><path d="M186.719,96.427c0,-1.889 -1.531,-3.42 -3.42,-3.42l-100.622,-0c-1.889,-0 -3.42,1.531 -3.42,3.42l-0,5.517c-0,1.889 1.531,3.42 3.42,3.42l100.622,0c1.889,0 3.42,-1.531 3.42,-3.42l0,-5.517Zm-3.42,-0l-100.622,-0l-0,5.517l100.622,0l0,-5.517Z" style="fill:#c0181c;"/><g><path d="M129.671,168.618c0,-3.394 -2.948,-6.377 -7.851,-6.377c-4.902,0 -7.988,2.983 -7.988,6.377c0,3.291 1.783,4.594 3.429,5.416c-1.817,0.72 -4.183,2.572 -4.183,6.446c0,4.011 3.497,7.233 8.845,7.233c5.108,0 8.605,-3.394 8.605,-7.302c0,-3.874 -2.331,-5.691 -4.182,-6.377c1.508,-0.788 3.325,-2.159 3.325,-5.416Zm-9.976,0.24c-0,-1.029 0.72,-2.092 2.125,-2.092c1.372,0 2.092,1.063 2.092,2.092c-0,1.062 -0.72,2.125 -2.092,2.125c-1.405,0 -2.125,-1.063 -2.125,-2.125Zm-0.926,10.696c0,-1.508 0.994,-3.017 3.051,-3.017c2.023,0 3.017,1.509 3.017,3.017c0,1.543 -0.994,3.051 -3.017,3.051c-2.057,0 -3.051,-1.508 -3.051,-3.051Z" style="fill-rule:nonzero;"/><path d="M132.654,171.086l5.759,0c0,-1.817 0.617,-3.531 2.469,-3.531c1.44,-0 2.262,0.72 2.262,2.228c0,1.543 -0.342,2.743 -1.645,4.56l-9.188,12.753l17.553,0l-0,-4.902l-6.925,-0l3.428,-4.286c2.091,-2.605 3.394,-4.868 3.394,-8.467c0,-3.943 -3.12,-7.029 -8.708,-7.029c-5.794,0 -8.399,4.114 -8.399,8.674Z" style="fill-rule:nonzero;"/></g><g><path d="M118.362,239.903l0,-9.714l-3.012,-0l-0,12.363l6.32,0l-0,-2.649l-3.308,0Z" style="fill-rule:nonzero;"/><path d="M130.051,232.838l-0,-2.649l-6.65,-0l0,12.363l6.65,0l-0,-2.649l-3.637,0l0,-2.216l3.429,-0l-0,-2.65l-3.429,0l0,-2.199l3.637,0Z" style="fill-rule:nonzero;"/><path d="M135.055,230.189l-3.81,12.363l3.013,0l0.572,-1.783l3.93,-0l0.555,1.783l2.995,0l-3.809,-12.363l-3.446,-0Zm1.766,4.035l1.126,3.792l-2.303,-0l1.177,-3.792Z" style="fill-rule:nonzero;"/><path d="M153.843,236.388c-0,-3.1 -2.009,-6.199 -5.992,-6.199l-4.242,-0l-0,12.363l4.242,0c4,0 5.992,-3.082 5.992,-6.164Zm-7.221,3.532l-0,-7.082l0.779,0c2.061,0 3.273,1.732 3.273,3.567c-0,1.836 -1.195,3.515 -3.273,3.515l-0.779,0Z" style="fill-rule:nonzero;"/></g><g><path d="M105.809,364.873l2.909,-0c-0,-0.918 0.311,-1.784 1.246,-1.784c0.728,0 1.143,0.364 1.143,1.126c0,0.779 -0.173,1.385 -0.831,2.303l-4.641,6.441l8.866,0l0,-2.476l-3.498,-0l1.732,-2.165c1.056,-1.316 1.714,-2.458 1.714,-4.277c0,-1.991 -1.576,-3.549 -4.398,-3.549c-2.926,-0 -4.242,2.078 -4.242,4.381Z" style="fill-rule:nonzero;"/><path d="M126.778,366.777c-0,-3.168 -1.853,-6.32 -5.61,-6.32c-3.758,0 -5.645,3.169 -5.645,6.338c-0,3.168 1.887,6.337 5.645,6.337c3.74,0 5.61,-3.186 5.61,-6.355Zm-8.26,0.018c0,-1.974 0.883,-3.948 2.65,-3.948c1.766,-0 2.649,1.974 2.649,3.948c-0,1.956 -0.883,3.93 -2.649,3.93c-1.767,0 -2.65,-1.974 -2.65,-3.93Z" style="fill-rule:nonzero;"/><path d="M137.531,360.596l-9.558,-0l-0,2.285l5.108,0l-5.68,10.078l3.377,0.017l6.753,-12.38Z" style="fill-rule:nonzero;"/><path d="M141.427,371.539c0,-0.831 -0.658,-1.489 -1.489,-1.489c-0.831,0 -1.489,0.658 -1.489,1.489c-0,0.831 0.658,1.489 1.489,1.489c0.831,0 1.489,-0.658 1.489,-1.489Z" style="fill-rule:nonzero;"/><path d="M142.587,364.873l2.909,-0c0,-0.918 0.312,-1.784 1.247,-1.784c0.727,0 1.143,0.364 1.143,1.126c-0,0.779 -0.173,1.385 -0.831,2.303l-4.641,6.441l8.866,0l-0,-2.476l-3.498,-0l1.732,-2.165c1.056,-1.316 1.714,-2.458 1.714,-4.277c-0,-1.991 -1.576,-3.549 -4.398,-3.549c-2.927,-0 -4.243,2.078 -4.243,4.381Z" style="fill-rule:nonzero;"/><path d="M163.557,366.777c-0,-3.168 -1.853,-6.32 -5.611,-6.32c-3.757,0 -5.645,3.169 -5.645,6.338c0,3.168 1.888,6.337 5.645,6.337c3.741,0 5.611,-3.186 5.611,-6.355Zm-8.26,0.018c0,-1.974 0.883,-3.948 2.649,-3.948c1.767,-0 2.65,1.974 2.65,3.948c-0,1.956 -0.883,3.93 -2.65,3.93c-1.766,0 -2.649,-1.974 -2.649,-3.93Z" style="fill-rule:nonzero;"/></g><g><path d="M131.04,289.389c0,-12.291 -8.867,-19.754 -20.105,-19.754l-23.441,0l0,62.686l15.276,-0l0,-23.266l8.165,0c11.238,0 20.105,-7.375 20.105,-19.666Zm-28.27,6.234l0,-12.555l6.761,0c3.863,0 6.321,2.634 6.321,6.321c-0,3.688 -1.932,6.234 -6.321,6.234l-6.761,-0Z" style="fill:#fefffe;fill-rule:nonzero;"/><path d="M161.593,291.409c-7.199,-0 -9.921,1.58 -12.116,3.16l0,-27.216l-13.432,-0l-0,64.968l13.432,-0l0,-2.546c2.019,1.404 5.795,3.424 12.116,3.424c13.432,-0 20.105,-10.448 20.105,-20.895c-0,-10.448 -6.673,-20.895 -20.105,-20.895Zm-11.94,20.543c-0,-4.565 3.775,-8.34 8.34,-8.34c4.566,-0 8.341,3.775 8.341,8.34c-0,4.566 -3.775,8.341 -8.341,8.341c-4.565,-0 -8.34,-3.775 -8.34,-8.341Z" style="fill:#fefffe;fill-rule:nonzero;"/></g><path d="M162.214,106.438l-0,103.433c-0,0.287 0.079,0.567 0.227,0.812l85.376,140.449c0.448,0.737 1.41,0.971 2.147,0.523c0.737,-0.448 0.971,-1.41 0.523,-2.146l-85.148,-140.075c-0,-0 -0,-102.996 -0,-102.996c-0,-0.862 -0.7,-1.562 -1.563,-1.562c-0.862,-0 -1.562,0.7 -1.562,1.562Z" style="fill:#d06e6f;"/><rect x="86.918" y="120.383" width="91.86" height="20.789" style="fill:#fefffe;"/><g><path d="M122.158,129.744l1.004,6.909l2.996,0l-1.801,-12.363l-3.134,-0l-2.251,6.684l-2.113,-6.684l-3.186,-0l-1.974,12.363l3.013,0l1.056,-6.909l2.321,6.909l1.766,0l2.303,-6.909Z" style="fill-rule:nonzero;"/><path d="M129.811,133.259l5.818,0c0.018,-0.138 0.018,-0.294 0.018,-0.433c-0,-2.285 -1.282,-4.38 -4.398,-4.38c-2.788,-0 -4.329,2.199 -4.329,4.259c-0,2.061 1.402,4.173 4.207,4.173c2.927,0 3.896,-1.679 4.26,-2.839l-2.649,-0c-0.156,0.381 -0.52,0.64 -1.489,0.64c-0.866,0 -1.42,-0.588 -1.438,-1.42Zm2.805,-1.714l-2.77,0c0.017,-0.485 0.45,-1.091 1.368,-1.091c0.918,0 1.351,0.606 1.402,1.091Z" style="fill-rule:nonzero;"/><path d="M137.586,131.164l0,5.489l2.996,0l-0,-5.489l1.679,0l0,-2.476l-1.679,-0l-0,-2.32l-2.996,-0l0,2.32l-0.97,-0l0,2.476l0.97,0Z" style="fill-rule:nonzero;"/><path d="M152.201,128.619l-2.65,-0l0,0.588c-0.381,-0.329 -1.056,-0.623 -2.389,-0.623c-2.65,0 -3.966,2.061 -3.966,4.121c0,2.061 1.316,4.121 3.966,4.121c1.385,0 1.991,-0.381 2.389,-0.675l0,0.502l2.65,0l-0,-8.034Zm-6.044,4.017c0,-0.9 0.745,-1.645 1.645,-1.645c0.901,-0 1.645,0.745 1.645,1.645c0,0.9 -0.744,1.645 -1.645,1.645c-0.9,-0 -1.645,-0.745 -1.645,-1.645Z" style="fill-rule:nonzero;"/><rect x="154.261" y="123.84" width="3.013" height="12.814" style="fill-rule:nonzero;"/></g><path d="M180.69,209.31l0,-103.766c0,-1.956 -1.585,-3.542 -3.541,-3.542l-88.083,0c-1.956,0 -3.542,1.586 -3.542,3.542l-0,103.286l-79.132,132.326c-5.293,8.851 -5.42,19.865 -0.332,28.836c5.088,8.971 14.606,14.515 24.919,14.515c55.149,-0 148.821,-0 203.969,-0c10.314,-0 19.831,-5.544 24.919,-14.515c5.088,-8.971 4.961,-19.985 -0.332,-28.836l-78.845,-131.846Zm-91.624,0.499l-0,-104.265l88.083,-0l-0,104.361l-0.229,0l79.575,133.069c4.639,7.757 4.75,17.409 0.291,25.271c-4.459,7.862 -12.799,12.72 -21.838,12.72c-55.148,0 -148.82,0 -203.969,0c-9.038,0 -17.379,-4.858 -21.838,-12.72c-4.459,-7.862 -4.348,-17.514 0.291,-25.271l79.634,-133.165Z" style="fill:#c0181c;"/><circle cx="144.936" cy="72.97" r="15.218" style="fill:#c0181c;"/><path d="M144.936,54.21c-10.354,0 -18.76,8.406 -18.76,18.76c-0,10.354 8.406,18.76 18.76,18.76c10.354,-0 18.76,-8.406 18.76,-18.76c-0,-10.354 -8.406,-18.76 -18.76,-18.76Zm-0,3.542c8.399,-0 15.218,6.819 15.218,15.218c-0,8.399 -6.819,15.218 -15.218,15.218c-8.399,0 -15.218,-6.819 -15.218,-15.218c-0,-8.399 6.819,-15.218 15.218,-15.218Z" style="fill:#d06e6f;"/><ellipse cx="113.959" cy="42.208" rx="11.394" ry="11.609" style="fill:#c0181c;"/><path d="M113.959,27.922c-7.752,0 -14.071,6.388 -14.071,14.286c0,7.899 6.319,14.287 14.071,14.287c7.752,-0 14.071,-6.388 14.071,-14.287c-0,-7.898 -6.319,-14.286 -14.071,-14.286Zm-0,2.677c6.288,0 11.394,5.202 11.394,11.609c-0,6.408 -5.106,11.61 -11.394,11.61c-6.289,-0 -11.394,-5.202 -11.394,-11.61c-0,-6.407 5.105,-11.609 11.394,-11.609Z" style="fill:#d06e6f;"/><ellipse cx="143.729" cy="27.632" rx="7.156" ry="7.121" style="fill:#c0181c;"/><path d="M143.729,18.85c-4.868,0 -8.817,3.938 -8.817,8.782c0,4.845 3.949,8.782 8.817,8.782c4.868,-0 8.817,-3.937 8.817,-8.782c-0,-4.844 -3.949,-8.782 -8.817,-8.782Zm-0,1.662c3.949,-0 7.155,3.19 7.155,7.12c0,3.93 -3.206,7.121 -7.155,7.121c-3.949,-0 -7.156,-3.191 -7.156,-7.121c0,-3.93 3.207,-7.12 7.156,-7.12Z" style="fill:#d06e6f;"/><ellipse cx="128.61" cy="9.449" rx="5.51" ry="5.701" style="fill:#c0181c;"/><path d="M128.61,2.443c-3.748,-0 -6.814,3.127 -6.814,7.006c-0,3.878 3.066,7.006 6.814,7.006c3.749,-0 6.815,-3.128 6.815,-7.006c-0,-3.879 -3.066,-7.006 -6.815,-7.006Zm0,1.304c3.041,0 5.51,2.555 5.51,5.702c0,3.146 -2.469,5.701 -5.51,5.701c-3.041,-0 -5.509,-2.555 -5.509,-5.701c-0,-3.147 2.468,-5.702 5.509,-5.702Z" style="fill:#d06e6f;"/></g><defs><linearGradient id="_Linear1" x1="0" y1="0" x2="1" y2="0" gradientUnits="userSpaceOnUse" gradientTransform="matrix(-163.453,1.45617,-1.45617,-163.453,128.394,276.432)"><stop offset="0" style="stop-color:#c0181c;stop-opacity:1"/><stop offset="1" style="stop-color:#d06e6f;stop-opacity:1"/></linearGradient></defs></svg>