<?xml version="1.0" encoding="UTF-8" standalone="no"?><!DOCTYPE svg PUBLIC "-//W3C//DTD SVG 1.1//EN" "http://www.w3.org/Graphics/SVG/1.1/DTD/svg11.dtd"><svg width="100%" height="100%" viewBox="0 0 441 413" version="1.1" xmlns="http://www.w3.org/2000/svg" xmlns:xlink="http://www.w3.org/1999/xlink" xml:space="preserve" xmlns:serif="http://www.serif.com/" style="fill-rule:evenodd;clip-rule:evenodd;stroke-linecap:round;stroke-linejoin:round;stroke-miterlimit:1.5;"><rect id="feuilles" x="1.163" y="2.199" width="437.538" height="409.505" style="fill:none;"/><clipPath id="_clip1"><rect x="1.163" y="2.199" width="437.538" height="409.505"/></clipPath><g clip-path="url(#_clip1)"><rect x="-7.151" y="1.488" width="446.019" height="424.874" style="fill:#c0181c;"/><g><path d="M335.159,374.526c-18.448,-11.348 -38.676,-60.029 -38.676,-60.029" style="fill:none;stroke:#fefffe;stroke-width:5.31px;"/><path d="M222.14,314.27l18.694,-1.553" style="fill:none;stroke:#fefffe;stroke-width:6.24px;"/><path d="M86.1,72.693c-3.454,5.243 -8.63,43.9 -8.025,52.671c1.214,17.594 2.473,35.436 7.149,52.612c14.35,52.708 50.371,89.008 93.695,118.727c9.208,6.317 46.087,28.844 59.498,20.565c12.986,-8.017 7.759,-49.552 6.106,-60.385c-11.292,-74.04 -42.969,-131.722 -109.018,-169.823c-10.524,-6.07 -22.304,-9.154 -33.551,-13.433c-2.561,-0.975 -12.938,-5.362 -15.854,-0.934Zm4.775,4.37c0.595,0.023 1.46,0.078 2.042,0.196c2.871,0.582 5.693,1.783 6.814,2.209c10.938,4.161 22.417,7.102 32.651,13.006c64.277,37.079 94.973,93.297 105.963,165.352c0.955,6.261 3.175,23.168 2.076,37.361c-0.335,4.326 -0.967,8.384 -2.125,11.706c-0.774,2.22 -1.633,4.113 -3.162,5.057c-1.664,1.027 -3.948,1.017 -6.523,0.749c-3.692,-0.385 -7.847,-1.565 -12.118,-3.139c-13.846,-5.101 -28.728,-14.367 -34.039,-18.011c-42.091,-28.873 -77.257,-64.006 -91.2,-115.215c-4.568,-16.779 -5.758,-34.213 -6.944,-51.401c-0.407,-5.895 1.991,-25.844 4.554,-39.015c0.755,-3.884 1.358,-7.114 2.011,-8.855Z" style="fill:#fefffe;"/><path d="M256.627,38.88c6.836,-4.218 70.271,50.561 79.723,124.214c9.452,73.652 -28.636,154.141 -44.124,155.134c-17.955,1.15 -73.775,-65.138 -83.227,-138.79c-9.453,-73.653 42.51,-137.4 47.628,-140.558Z" style="fill:#c11c21;"/><path d="M256.627,38.88c6.836,-4.218 70.271,50.561 79.723,124.214c9.452,73.652 -28.636,154.141 -44.124,155.134c-17.955,1.15 -73.775,-65.138 -83.227,-138.79c-9.453,-73.653 42.51,-137.4 47.628,-140.558Zm2.025,6.847c2.491,1.491 7.721,4.807 12.258,8.862c20.858,18.644 52.849,59.493 59.241,109.3c6.429,50.095 -9.777,103.445 -25.241,131.277c-3.706,6.67 -7.305,11.81 -10.548,14.879c-0.934,0.883 -2.439,1.804 -2.679,1.949c-1.224,0.021 -2.669,-0.689 -4.405,-1.641c-4.239,-2.326 -9.258,-6.478 -14.688,-12.042c-22.493,-23.045 -50.968,-69.608 -57.392,-119.669c-6.388,-49.774 16.417,-94.825 32.286,-118.444c4.192,-6.239 8.851,-11.806 11.168,-14.471Z" style="fill:#fefffe;"/><path d="M279.159,308.418c4.276,16.459 23.765,50.984 23.765,50.984" style="fill:none;stroke:#fefffe;stroke-width:6.25px;stroke-linejoin:miter;"/><path d="M213.58,311.851c17.658,2.566 63.356,44.307 91.833,61.496c6.071,3.665 26.66,17.496 29.373,1.448l-1.219,-0.441c-36.069,-13.716 -64.36,-40.518 -93.107,-65.508" style="fill:#c11c21;stroke:#fefffe;stroke-width:6.25px;stroke-linejoin:miter;"/><path d="M291.51,308.236l3.817,10.628l-9.053,0.398l-6.042,-14.131l11.278,3.105Z" style="fill:#c11c21;"/></g></g></svg>