<?xml version="1.0" encoding="UTF-8" standalone="no"?><!DOCTYPE svg PUBLIC "-//W3C//DTD SVG 1.1//EN" "http://www.w3.org/Graphics/SVG/1.1/DTD/svg11.dtd"><svg width="100%" height="100%" viewBox="0 0 163 154" version="1.1" xmlns="http://www.w3.org/2000/svg" xmlns:xlink="http://www.w3.org/1999/xlink" xml:space="preserve" xmlns:serif="http://www.serif.com/" style="fill-rule:evenodd;clip-rule:evenodd;stroke-linecap:round;stroke-linejoin:round;stroke-miterlimit:1.5;"><g><path d="M73.42,10.821c-0,-0 11.741,19.448 11.741,42.146c0,22.698 -12.432,41.125 -12.432,41.125c-0,0 -12.432,-18.427 -12.432,-41.125c-0,-22.698 13.123,-42.146 13.123,-42.146Zm-0.331,14.154c2.796,7.152 5.691,17.171 5.691,27.992c-0,10.827 -3.095,20.591 -6.051,27.448c-2.956,-6.857 -6.051,-16.621 -6.051,-27.448c0,-10.845 3.278,-20.878 6.411,-27.992Z" style="fill:#177540;"/><path d="M13.517,137.737c-0,0 18.679,12.93 41.333,14.343c22.654,1.413 41.82,-9.847 41.82,-9.847c-0,-0 -17.618,-13.556 -40.272,-14.969c-22.654,-1.414 -42.881,10.473 -42.881,10.473Zm14.147,0.552c7.297,-2.685 17.514,-5.331 28.337,-4.656c10.806,0.674 20.358,4.371 27.018,7.748c-7.028,2.523 -16.965,5.004 -27.772,4.33c-10.798,-0.674 -20.617,-4.187 -27.583,-7.422Z" style="fill:#177540;"/><path d="M45.672,33.398c-0,0 11.742,19.449 11.742,42.146c-0,22.698 -12.433,41.126 -12.433,41.126c0,-0 -12.432,-18.428 -12.432,-41.126c-0,-22.697 13.123,-42.146 13.123,-42.146Zm-0.33,14.155c2.795,7.152 5.69,17.171 5.69,27.991c-0,10.827 -3.095,20.591 -6.051,27.448c-2.955,-6.856 -6.05,-16.621 -6.05,-27.448c-0,-10.845 3.277,-20.878 6.411,-27.991Z" style="fill:#177540;"/><path d="M43.836,116.754c-0,-0 19.143,12.233 41.833,12.811c22.691,0.578 41.429,-11.381 41.429,-11.381c-0,0 -18.105,-12.897 -40.796,-13.475c-22.69,-0.579 -42.466,12.045 -42.466,12.045Zm14.158,0.03c7.193,-2.952 17.305,-5.972 28.146,-5.696c10.823,0.276 20.505,3.619 27.285,6.748c-6.93,2.78 -16.77,5.625 -27.593,5.35c-10.817,-0.276 -20.758,-3.425 -27.838,-6.402Z" style="fill:#177540;"/><path d="M17.924,55.976c0,-0 11.742,19.448 11.742,42.146c-0,22.698 -12.432,41.125 -12.432,41.125c-0,0 -12.433,-18.427 -12.433,-41.125c0,-22.698 13.123,-42.146 13.123,-42.146Zm-0.33,14.154c2.795,7.152 5.69,17.171 5.69,27.992c0,10.827 -3.095,20.591 -6.051,27.448c-2.955,-6.857 -6.05,-16.621 -6.05,-27.448c-0,-10.845 3.277,-20.878 6.411,-27.992Z" style="fill:#177540;"/><path d="M3.185,145.947c0,-0 66.395,-44.308 88.916,-73.372" style="fill:none;stroke:#177540;stroke-width:6.25px;"/><g><path d="M91.575,71.79c0,-0 7.978,-21.741 19.523,-33.102" style="fill:none;stroke:#177540;stroke-width:6.25px;"/><path d="M124.665,25.07c-0,-0 13.86,-13.782 32.843,-19.363" style="fill:none;stroke:#177540;stroke-width:6.25px;"/><path d="M157.508,5.707c-0,0 -8.085,20.831 -23.836,39.311c-10.66,12.508 -25.453,23.785 -41.247,27.395" style="fill:none;stroke:#177540;stroke-width:6.25px;"/><ellipse cx="117.548" cy="31.437" rx="2.941" ry="2.875" style="fill:#177540;"/></g><g><path d="M78.538,90.917c-0,-0 16.35,6.913 28.756,6.395" style="fill:none;stroke:#177540;stroke-width:4.79px;"/><path d="M122.022,96.843c-0,-0 14.973,-0.548 28.035,-8.257" style="fill:none;stroke:#177540;stroke-width:4.79px;"/><path d="M150.057,88.586c-0,-0 -15.897,-6.376 -34.491,-7.23c-12.585,-0.577 -26.643,1.804 -36.932,8.759" style="fill:none;stroke:#177540;stroke-width:4.79px;"/><path d="M116.34,99c0.85,-0.909 0.818,-2.321 -0.07,-3.151c-0.889,-0.831 -2.3,-0.767 -3.149,0.142c-0.85,0.908 -0.818,2.32 0.07,3.151c0.889,0.83 2.3,0.767 3.149,-0.142Z" style="fill:#177540;"/></g></g></svg>