<?xml version="1.0" encoding="UTF-8" standalone="no"?><!DOCTYPE svg PUBLIC "-//W3C//DTD SVG 1.1//EN" "http://www.w3.org/Graphics/SVG/1.1/DTD/svg11.dtd"><svg width="100%" height="100%" viewBox="0 0 438 410" version="1.1" xmlns="http://www.w3.org/2000/svg" xmlns:xlink="http://www.w3.org/1999/xlink" xml:space="preserve" xmlns:serif="http://www.serif.com/" style="fill-rule:evenodd;clip-rule:evenodd;stroke-linecap:square;stroke-linejoin:round;stroke-miterlimit:1.5;"><rect id="_3-lipsticks-140x131" serif:id="3 lipsticks 140x131" x="0" y="0" width="437.538" height="409.505" style="fill:none;"/><clipPath id="_clip1"><rect x="0" y="0" width="437.538" height="409.505"/></clipPath><g clip-path="url(#_clip1)"><rect x="3.83" y="-0.611" width="437.629" height="409.473" style="fill:#c0181c;stroke:#c11c21;stroke-width:9.38px;"/><g><g><path d="M131.243,99.081l21.591,11.32" style="fill:none;stroke:#000;stroke-width:5px;stroke-linecap:round;"/><path d="M89.662,99.026l-20.733,11.137" style="fill:none;stroke:#000;stroke-width:5px;stroke-linecap:round;"/><path d="M110.58,132.925l-42.371,-22.23l-0.263,86.405l42.48,22.211l0.154,-86.386Z" style="fill:none;stroke:#000;stroke-width:5px;stroke-linecap:round;"/><path d="M153.231,196.952l-42.438,22.222l-0.263,-86.374l42.547,-22.204l0.154,86.356Z" style="fill:none;stroke:#000;stroke-width:5px;stroke-linecap:round;"/><path d="M121.056,57.283c-8.416,8.339 -20.946,9.323 -26.867,3.321c-5.922,-6.003 -4.77,-13.384 3.647,-21.722c8.416,-8.339 23.204,-11.613 29.125,-5.61c5.921,6.002 2.512,15.672 -5.905,24.011Z" style="fill:none;stroke:#000;stroke-width:5px;stroke-linecap:round;"/><path d="M129.416,44.576l-0,67.917" style="fill:none;stroke:#000;stroke-width:5px;stroke-linecap:round;"/><path d="M90.85,54.988l-0,55.72" style="fill:none;stroke:#000;stroke-width:5px;stroke-linecap:round;"/><path d="M130.393,107.612l4.921,3.057l-24.476,12.354l-24.9,-13.064l4.12,-2.611" style="fill:none;stroke:#000;stroke-width:5px;stroke-linecap:round;"/></g><g><path d="M240.838,185.869l21.591,11.32" style="fill:none;stroke:#fefffe;stroke-width:5px;stroke-linecap:round;"/><path d="M199.257,185.814l-20.733,11.137" style="fill:none;stroke:#fefffe;stroke-width:5px;stroke-linecap:round;"/><path d="M220.175,219.713l-42.371,-22.23l-0.263,86.404l42.48,22.211l0.154,-86.385Z" style="fill:none;stroke:#fefffe;stroke-width:5px;stroke-linecap:round;"/><path d="M262.826,283.74l-42.438,22.222l-0.263,-86.375l42.547,-22.203l0.154,86.356Z" style="fill:none;stroke:#fefffe;stroke-width:5px;stroke-linecap:round;"/><path d="M230.651,144.071c-8.416,8.338 -20.946,9.323 -26.867,3.32c-5.922,-6.002 -4.77,-13.383 3.647,-21.722c8.416,-8.338 23.204,-11.612 29.125,-5.61c5.921,6.003 2.512,15.673 -5.905,24.012Z" style="fill:none;stroke:#fefffe;stroke-width:5px;stroke-linecap:round;"/><path d="M239.011,131.364l-0,67.917" style="fill:none;stroke:#fefffe;stroke-width:5px;stroke-linecap:round;"/><path d="M200.445,141.776l-0,55.72" style="fill:none;stroke:#fefffe;stroke-width:5px;stroke-linecap:round;"/><path d="M239.988,194.4l4.921,3.056l-24.476,12.354l-24.9,-13.063l4.12,-2.612" style="fill:none;stroke:#fefffe;stroke-width:5px;stroke-linecap:round;"/></g><g><path d="M349.24,264.823l21.591,11.319" style="fill:none;stroke:#000;stroke-width:5px;stroke-linecap:round;"/><path d="M307.659,264.767l-20.734,11.138" style="fill:none;stroke:#000;stroke-width:5px;stroke-linecap:round;"/><path d="M328.577,298.667l-42.371,-22.23l-0.263,86.404l42.48,22.211l0.154,-86.385Z" style="fill:none;stroke:#000;stroke-width:5px;stroke-linecap:round;"/><path d="M371.228,362.693l-42.438,22.222l-0.263,-86.374l42.547,-22.203l0.154,86.355Z" style="fill:none;stroke:#000;stroke-width:5px;stroke-linecap:round;"/><path d="M339.053,223.024c-8.416,8.339 -20.946,9.323 -26.868,3.321c-5.921,-6.002 -4.769,-13.383 3.647,-21.722c8.417,-8.339 23.205,-11.612 29.126,-5.61c5.921,6.002 2.512,15.673 -5.905,24.011Z" style="fill:none;stroke:#000;stroke-width:5px;stroke-linecap:round;"/><path d="M347.412,210.318l0,67.916" style="fill:none;stroke:#000;stroke-width:5px;stroke-linecap:round;"/><path d="M308.847,220.729l-0,55.72" style="fill:none;stroke:#000;stroke-width:5px;stroke-linecap:round;"/><path d="M348.39,273.354l4.921,3.056l-24.477,12.354l-24.899,-13.063l4.12,-2.612" style="fill:none;stroke:#000;stroke-width:5px;stroke-linecap:round;"/></g></g></g></svg>