<?xml version="1.0" encoding="UTF-8" standalone="no"?><!DOCTYPE svg PUBLIC "-//W3C//DTD SVG 1.1//EN" "http://www.w3.org/Graphics/SVG/1.1/DTD/svg11.dtd"><svg width="100%" height="100%" viewBox="0 0 1354 644" version="1.1" xmlns="http://www.w3.org/2000/svg" xmlns:xlink="http://www.w3.org/1999/xlink" xml:space="preserve" xmlns:serif="http://www.serif.com/" style="fill-rule:evenodd;clip-rule:evenodd;stroke-linecap:square;stroke-linejoin:round;stroke-miterlimit:1.5;"><g><g><path d="M728.45,278.93l-41.86,108.247l8.96,0l11.015,-28.494l43.769,0l11.162,28.494l8.96,0l-42.006,-108.247Zm-0,23.5l18.506,47.294l-36.719,0l18.213,-47.294Z" style="fill:#c0181c;fill-rule:nonzero;"/><path d="M798.509,378.218l-0,-95.91l-8.959,0l-0,104.869l35.396,0l0,-8.959l-26.437,-0Z" style="fill:#c0181c;fill-rule:nonzero;"/><path d="M855.937,378.218l0,-95.91l-8.959,0l-0,104.869l35.397,0l-0,-8.959l-26.438,-0Z" style="fill:#c0181c;fill-rule:nonzero;"/><path d="M912.631,359.565l-0,-77.257l-9.106,0l-0,76.082c-0,19.534 13.218,30.843 30.55,30.843c17.184,0 30.403,-11.015 30.403,-30.843l-0,-76.082l-8.96,0l0,77.257c0,14.1 -9.987,20.856 -21.443,20.856c-11.604,-0 -21.444,-6.756 -21.444,-20.856Z" style="fill:#c0181c;fill-rule:nonzero;"/><path d="M1024.4,278.93l-41.86,108.247l8.96,0l11.015,-28.494l43.769,0l11.163,28.494l8.959,0l-42.006,-108.247Zm-0,23.5l18.506,47.294l-36.719,0l18.213,-47.294Z" style="fill:#c0181c;fill-rule:nonzero;"/><path d="M1160.85,282.455l-0,83.425l-75.347,-84.306l-0,105.603l8.959,0l0,-82.397l75.347,84.307l-0,-106.632l-8.959,0Z" style="fill:#c0181c;fill-rule:nonzero;"/><path d="M1197.86,335.037c0,-28.054 20.709,-44.797 42.888,-44.797c18.212,-0 26.437,4.553 37.746,11.015l0,-10.428c-9.4,-5.581 -16.303,-9.547 -37.746,-9.547c-28.935,0 -52.435,21.15 -52.435,53.757c0,32.9 23.5,53.609 52.435,53.609c21.884,-0 30.256,-6.169 37.746,-11.309l0,-9.988c-8.518,6.316 -17.918,12.338 -37.746,12.338c-22.179,-0 -42.888,-16.157 -42.888,-44.65Z" style="fill:#c0181c;fill-rule:nonzero;"/><path d="M1350.03,291.268l-0,-8.96l-50.232,0l0,104.869l50.232,0l-0,-8.959l-41.272,-0l-0,-44.65l41.272,-0l-0,-9.106l-41.272,-0l-0,-33.194l41.272,-0Z" style="fill:#c0181c;fill-rule:nonzero;"/></g><g><circle cx="319.57" cy="322.303" r="310.056" style="fill:#fff;"/><path d="M319.57,2.872c-176.299,0 -319.431,143.132 -319.431,319.431c0,176.298 143.132,319.43 319.431,319.43c176.298,0 319.43,-143.132 319.43,-319.43c0,-176.299 -143.132,-319.431 -319.43,-319.431Zm-0,9.375c171.124,0 310.055,138.931 310.055,310.056c0,171.124 -138.931,310.055 -310.055,310.055c-171.125,0 -310.056,-138.931 -310.056,-310.055c0,-171.125 138.931,-310.056 310.056,-310.056Z"/><path d="M113.177,457.315l165.612,-330.114l115.785,176.772l-102.004,-1.937" style="fill:none;stroke:#000;stroke-width:9.38px;"/><path d="M349.772,130.461l0,327.066l184.535,0" style="fill:none;stroke:#51654e;stroke-width:9.38px;"/><path d="M349.772,130.461l0,327.066l184.535,0" style="fill:none;stroke:#000;stroke-width:9.38px;"/><path d="M268.572,276.428c-14.181,-0 -25.693,11.513 -25.693,25.693c-0,14.181 11.512,25.694 25.693,25.694c14.181,-0 25.694,-11.513 25.694,-25.694c-0,-14.18 -11.513,-25.693 -25.694,-25.693Zm0,10.937c8.144,0 14.756,6.612 14.756,14.756c0,8.144 -6.612,14.756 -14.756,14.756c-8.144,0 -14.756,-6.612 -14.756,-14.756c0,-8.144 6.612,-14.756 14.756,-14.756Z" style="fill:#c0181c;"/></g></g></svg>