<?xml version="1.0" encoding="UTF-8" standalone="no"?><!DOCTYPE svg PUBLIC "-//W3C//DTD SVG 1.1//EN" "http://www.w3.org/Graphics/SVG/1.1/DTD/svg11.dtd"><svg width="100%" height="100%" viewBox="0 0 135 157" version="1.1" xmlns="http://www.w3.org/2000/svg" xmlns:xlink="http://www.w3.org/1999/xlink" xml:space="preserve" xmlns:serif="http://www.serif.com/" style="fill-rule:evenodd;clip-rule:evenodd;stroke-linecap:square;stroke-linejoin:round;stroke-miterlimit:1.5;"><g><g><path d="M23.478,48.619l-1.815,1.837c-3.261,3.3 -3.229,8.618 0.07,11.878l9.743,9.628c3.3,3.261 8.618,3.229 11.878,-0.071l26.047,-26.357c3.26,-3.3 3.229,-8.618 -0.071,-11.879l-9.743,-9.628c-3.3,-3.26 -8.618,-3.229 -11.878,0.071l-1.08,1.093l-17.811,-18c-3.071,-3.103 -7.249,-4.86 -11.616,-4.883c-4.366,-0.023 -8.562,1.69 -11.666,4.761l-0.007,0.007c-3.103,3.071 -4.859,7.249 -4.882,11.615c-0.023,4.366 1.689,8.563 4.76,11.666l18.071,18.262Zm12.234,-0.431l-8.075,8.172l9.743,9.628l26.046,-26.358l-9.743,-9.628l-7.424,7.513c-0.393,-0.893 -0.949,-1.716 -1.649,-2.424c-6.081,-6.145 -15.681,-15.846 -21.763,-21.992c-1.504,-1.52 -3.55,-2.38 -5.689,-2.392c-2.138,-0.011 -4.194,0.828 -5.714,2.332c-0.002,0.002 -0.004,0.005 -0.007,0.007c-1.52,1.504 -2.38,3.551 -2.391,5.689c-0.011,2.139 0.827,4.194 2.332,5.714c6.081,6.146 15.681,15.847 21.762,21.992c0.743,0.751 1.619,1.341 2.572,1.747Z"/><path d="M64.867,50.596l55.717,55.717l-1.062,11.539l-13.717,2.571l-56.074,-56.074" style="fill:none;stroke:#000;stroke-width:8.4px;"/></g><path d="M123.831,125.236c-0,-0 10.002,11.324 10.002,18.837c-0,7.514 -4.196,10.977 -9.736,10.977c-5.54,-0 -10.339,-3.463 -10.339,-10.977c-0,-7.513 10.073,-18.837 10.073,-18.837Z" style="fill:#a6598f;"/></g></svg>