<?xml version="1.0" encoding="UTF-8" standalone="no"?><!DOCTYPE svg PUBLIC "-//W3C//DTD SVG 1.1//EN" "http://www.w3.org/Graphics/SVG/1.1/DTD/svg11.dtd"><svg width="100%" height="100%" viewBox="0 0 1041 694" version="1.1" xmlns="http://www.w3.org/2000/svg" xmlns:xlink="http://www.w3.org/1999/xlink" xml:space="preserve" xmlns:serif="http://www.serif.com/" style="fill-rule:evenodd;clip-rule:evenodd;stroke-linecap:round;stroke-linejoin:round;stroke-miterlimit:1.5;"><g id="Corona"><g><path d="M327.439,463.127l-82.792,-166.462c-0,-0 183.298,53.384 285.309,-102.256" style="fill:none;stroke:#fefffe;stroke-width:15.37px;"/><path d="M733.097,461.064l82.792,-166.463c0,0 -183.298,53.385 -285.309,-102.255" style="fill:none;stroke:#fefffe;stroke-width:15.37px;"/><path d="M740.383,455.484l-423.364,0l0,65.448l423.364,-0l0,-65.448Zm-14.243,14.244l-0,36.96c-0,-0 -394.877,-0 -394.877,-0c-0,-0 -0,-36.96 -0,-36.96l394.877,0Z" style="fill:#fefffe;"/><path d="M228.946,228.132c19.128,-0 34.657,15.642 34.657,34.909c-0,19.267 -15.529,34.909 -34.657,34.909c-19.128,0 -34.657,-15.642 -34.657,-34.909c0,-19.267 15.529,-34.909 34.657,-34.909Zm-0,14.194c11.322,-0 20.463,9.31 20.463,20.715c-0,11.405 -9.141,20.715 -20.463,20.715c-11.322,0 -20.463,-9.31 -20.463,-20.715c0,-11.405 9.141,-20.715 20.463,-20.715Z" style="fill:#fefffe;"/><path d="M529.591,124.418c19.128,-0 34.657,15.642 34.657,34.909c-0,19.267 -15.529,34.909 -34.657,34.909c-19.128,0 -34.657,-15.642 -34.657,-34.909c0,-19.267 15.529,-34.909 34.657,-34.909Zm-0,14.194c11.322,-0 20.463,9.31 20.463,20.715c-0,11.405 -9.141,20.715 -20.463,20.715c-11.322,0 -20.463,-9.31 -20.463,-20.715c0,-11.405 9.141,-20.715 20.463,-20.715Z" style="fill:#fefffe;"/><path d="M829.606,228.132c19.128,-0 34.657,15.642 34.657,34.909c-0,19.267 -15.529,34.909 -34.657,34.909c-19.128,0 -34.657,-15.642 -34.657,-34.909c0,-19.267 15.529,-34.909 34.657,-34.909Zm-0,14.194c11.322,-0 20.463,9.31 20.463,20.715c-0,11.405 -9.141,20.715 -20.463,20.715c-11.322,0 -20.463,-9.31 -20.463,-20.715c0,-11.405 9.141,-20.715 20.463,-20.715Z" style="fill:#fefffe;"/></g><path d="M532.533,292.994l47.454,61.295l-47.454,61.294l-47.455,-61.294l47.455,-61.295Zm-0,24.986l28.11,36.309c0,-0 -28.11,36.309 -28.11,36.309c-0,-0 -28.111,-36.309 -28.111,-36.309l28.111,-36.309Z" style="fill:#fefffe;"/></g></svg>