<?xml version="1.0" encoding="UTF-8" standalone="no"?><!DOCTYPE svg PUBLIC "-//W3C//DTD SVG 1.1//EN" "http://www.w3.org/Graphics/SVG/1.1/DTD/svg11.dtd"><svg width="100%" height="100%" viewBox="0 0 1063 963" version="1.1" xmlns="http://www.w3.org/2000/svg" xmlns:xlink="http://www.w3.org/1999/xlink" xml:space="preserve" xmlns:serif="http://www.serif.com/" style="fill-rule:evenodd;clip-rule:evenodd;stroke-linecap:round;stroke-linejoin:round;stroke-miterlimit:1.5;"><g><path d="M527.121,141.215c1.169,46.447 39.159,83.81 85.848,83.966c-0.33,47.275 -38.812,85.554 -86.164,85.554c-47.353,-0 -85.835,-38.279 -86.165,-85.554l0.342,0.001c46.819,-0 84.967,-37.422 86.139,-83.967Z" style="fill:none;stroke:#c0181c;stroke-width:7.81px;"/><path d="M527.121,315.991c1.169,46.447 39.159,83.81 85.848,83.966c-0.33,47.275 -38.812,85.554 -86.164,85.554c-47.353,-0 -85.835,-38.279 -86.165,-85.554l0.342,0.001c46.819,-0 84.967,-37.422 86.139,-83.967Z" style="fill:none;stroke:#c0181c;stroke-width:7.81px;"/><path d="M701.703,315.991c1.169,46.447 39.159,83.81 85.848,83.966c-0.33,47.275 -38.812,85.554 -86.164,85.554c-47.352,-0 -85.834,-38.279 -86.164,-85.554l0.341,0.001c46.82,-0 84.968,-37.422 86.139,-83.967Z" style="fill:none;stroke:#c0181c;stroke-width:7.81px;"/><path d="M614.608,403.522c1.169,46.447 39.159,83.809 85.848,83.966c-0.33,47.275 -38.812,85.554 -86.164,85.554c-47.352,-0 -85.834,-38.279 -86.164,-85.554l0.341,0.001c46.82,-0 84.968,-37.423 86.139,-83.967Z" style="fill:none;stroke:#c0181c;stroke-width:7.81px;"/><path d="M789.922,403.522c1.169,46.447 39.16,83.809 85.848,83.966c-0.329,47.275 -38.812,85.554 -86.164,85.554c-47.352,-0 -85.834,-38.279 -86.164,-85.554l0.342,0.001c46.819,-0 84.967,-37.423 86.138,-83.967Z" style="fill:none;stroke:#c0181c;stroke-width:7.81px;"/><path d="M701.749,490.021c1.169,46.446 39.16,83.809 85.848,83.965c-0.33,47.276 -38.812,85.554 -86.164,85.554c-47.352,0 -85.834,-38.278 -86.164,-85.554l0.341,0.001c46.82,0 84.968,-37.422 86.139,-83.966Z" style="fill:none;stroke:#c0181c;stroke-width:7.81px;"/><path d="M526.558,490.021c1.169,46.446 39.159,83.809 85.848,83.965c-0.33,47.276 -38.812,85.554 -86.164,85.554c-47.352,0 -85.835,-38.278 -86.165,-85.554l0.342,0.001c46.819,0 84.967,-37.422 86.139,-83.966Z" style="fill:none;stroke:#c0181c;stroke-width:7.81px;"/><path d="M351.355,490.021c1.169,46.446 39.159,83.809 85.848,83.965c-0.33,47.276 -38.812,85.554 -86.164,85.554c-47.353,0 -85.835,-38.278 -86.165,-85.554l0.342,0.001c46.819,0 84.967,-37.422 86.139,-83.966Z" style="fill:none;stroke:#c0181c;stroke-width:7.81px;"/><path d="M438.967,577.116c1.169,46.446 39.159,83.809 85.848,83.965c-0.33,47.276 -38.812,85.554 -86.164,85.554c-47.352,0 -85.834,-38.278 -86.164,-85.554l0.341,0.001c46.82,0 84.968,-37.422 86.139,-83.966Z" style="fill:none;stroke:#c0181c;stroke-width:7.81px;"/><path d="M614.12,577.116c1.169,46.446 39.16,83.809 85.848,83.965c-0.33,47.276 -38.812,85.554 -86.164,85.554c-47.352,0 -85.834,-38.278 -86.164,-85.554l0.341,0.001c46.82,0 84.968,-37.422 86.139,-83.966Z" style="fill:none;stroke:#c0181c;stroke-width:7.81px;"/><path d="M525.675,665.561c1.169,46.446 39.159,83.809 85.848,83.966c-0.33,47.275 -38.812,85.553 -86.164,85.553c-47.352,0 -85.834,-38.278 -86.164,-85.554l0.341,0.001c46.82,0 84.968,-37.422 86.139,-83.966Z" style="fill:none;stroke:#c0181c;stroke-width:7.81px;"/><path d="M439.667,403.522c1.169,46.447 39.159,83.809 85.848,83.966c-0.33,47.275 -38.812,85.554 -86.165,85.554c-47.352,-0 -85.834,-38.279 -86.164,-85.554l0.342,0.001c46.819,-0 84.967,-37.423 86.139,-83.967Z" style="fill:none;stroke:#c0181c;stroke-width:7.81px;"/><path d="M264.363,403.522c1.169,46.447 39.159,83.809 85.848,83.966c-0.33,47.275 -38.812,85.554 -86.164,85.554c-47.352,-0 -85.835,-38.279 -86.165,-85.554l0.342,0.001c46.819,-0 84.967,-37.423 86.139,-83.967Z" style="fill:none;stroke:#c0181c;stroke-width:7.81px;"/><path d="M352.845,316.064c1.169,46.446 39.159,83.809 85.848,83.965c-0.33,47.276 -38.812,85.554 -86.164,85.554c-47.353,0 -85.835,-38.278 -86.165,-85.554l0.342,0.001c46.819,0 84.967,-37.422 86.139,-83.966Z" style="fill:none;stroke:#c0181c;stroke-width:7.81px;"/><path d="M439.855,228.157c1.169,46.447 39.159,83.81 85.848,83.966c-0.33,47.275 -38.812,85.554 -86.164,85.554c-47.353,-0 -85.835,-38.279 -86.165,-85.554l0.342,0.001c46.819,0 84.967,-37.422 86.139,-83.967Z" style="fill:none;stroke:#c0181c;stroke-width:7.81px;"/><path d="M614.745,228.157c1.169,46.447 39.159,83.81 85.848,83.966c-0.33,47.275 -38.812,85.554 -86.164,85.554c-47.353,-0 -85.835,-38.279 -86.165,-85.554l0.342,0.001c46.819,0 84.967,-37.422 86.139,-83.967Z" style="fill:none;stroke:#c0181c;stroke-width:7.81px;"/></g></svg>