<?xml version="1.0" encoding="UTF-8" standalone="no"?><!DOCTYPE svg PUBLIC "-//W3C//DTD SVG 1.1//EN" "http://www.w3.org/Graphics/SVG/1.1/DTD/svg11.dtd"><svg width="100%" height="100%" viewBox="0 0 441 413" version="1.1" xmlns="http://www.w3.org/2000/svg" xmlns:xlink="http://www.w3.org/1999/xlink" xml:space="preserve" xmlns:serif="http://www.serif.com/" style="fill-rule:evenodd;clip-rule:evenodd;stroke-linecap:square;stroke-linejoin:round;stroke-miterlimit:1.5;"><rect id="Bubbly-140x131" serif:id="Bubbly 140x131" x="0" y="1.811" width="437.538" height="409.505" style="fill:none;"/><clipPath id="_clip1"><rect x="0" y="1.811" width="437.538" height="409.505"/></clipPath><g clip-path="url(#_clip1)"><rect x="3.83" y="1.2" width="437.629" height="409.473" style="fill:#c0181c;stroke:#c11c21;stroke-width:9.38px;"/><g><path d="M277.4,155.507c8.389,0 15.182,6.875 15.182,15.322c-0,8.446 -6.793,15.322 -15.182,15.322c-8.388,-0 -15.181,-6.876 -15.181,-15.322c-0,-8.447 6.793,-15.322 15.181,-15.322Z" style="fill:none;stroke:#fefffe;stroke-width:9.17px;stroke-linecap:round;"/><path d="M149.008,153.94c7.379,0 13.352,6.05 13.352,13.48c0,7.43 -5.973,13.479 -13.352,13.479c-7.378,0 -13.352,-6.049 -13.352,-13.479c0,-7.43 5.974,-13.48 13.352,-13.48Z" style="fill:none;stroke:#fefffe;stroke-width:9.17px;stroke-linecap:round;"/><path d="M252.155,82.439c10.337,-0 18.789,8.133 18.789,18.227c0,10.093 -8.452,18.226 -18.789,18.226c-10.336,0 -18.789,-8.133 -18.789,-18.226c0,-10.094 8.453,-18.227 18.789,-18.227Z" style="fill:none;stroke:#fefffe;stroke-width:9.17px;stroke-linecap:round;"/><path d="M197.722,90.724c11.411,0 20.736,8.986 20.736,20.129c0,11.143 -9.325,20.128 -20.736,20.128c-11.412,0 -20.736,-8.985 -20.736,-20.128c-0,-11.143 9.324,-20.129 20.736,-20.129Z" style="fill:none;stroke:#fefffe;stroke-width:9.17px;stroke-linecap:round;"/><path d="M222.766,68.69c4.032,0 7.299,3.29 7.299,7.333c0,4.044 -3.267,7.333 -7.299,7.333c-4.033,0 -7.3,-3.289 -7.3,-7.333c0,-4.043 3.267,-7.333 7.3,-7.333Z" style="fill:none;stroke:#fefffe;stroke-width:9.17px;stroke-linecap:round;"/><path d="M155.839,121.904c4.032,0 7.299,3.29 7.299,7.333c0,4.043 -3.267,7.333 -7.299,7.333c-4.033,-0 -7.3,-3.29 -7.3,-7.333c-0,-4.043 3.267,-7.333 7.3,-7.333Z" style="fill:none;stroke:#fefffe;stroke-width:9.17px;stroke-linecap:round;"/><path d="M51.908,43.443l319.404,319.403" style="fill:none;stroke:#fefffe;stroke-width:10.83px;"/><path d="M186.939,188.212l24.607,-0" style="fill:none;stroke:#fefffe;stroke-width:7.5px;"/><path d="M187.209,230.27l24.607,0" style="fill:none;stroke:#000;stroke-width:7.5px;"/><path d="M187.479,272.329l24.607,-0" style="fill:none;stroke:#fefffe;stroke-width:7.5px;"/><path d="M186.845,149.251l58.95,-0l0,140.956c0.03,0.539 0.045,1.085 0.045,1.633c0,16.232 -13.217,29.411 -29.498,29.411c-16.28,-0 -29.497,-13.179 -29.497,-29.411l-0,-142.589Z" style="fill:none;stroke:#fefffe;stroke-width:7.5px;stroke-linecap:round;"/><path d="M174.95,149.288l82.788,0" style="fill:none;stroke:#000;stroke-width:7.92px;"/></g></g></svg>