<?xml version="1.0" encoding="UTF-8" standalone="no"?><!DOCTYPE svg PUBLIC "-//W3C//DTD SVG 1.1//EN" "http://www.w3.org/Graphics/SVG/1.1/DTD/svg11.dtd"><svg width="100%" height="100%" viewBox="0 0 341 325" version="1.1" xmlns="http://www.w3.org/2000/svg" xmlns:xlink="http://www.w3.org/1999/xlink" xml:space="preserve" xmlns:serif="http://www.serif.com/" style="fill-rule:evenodd;clip-rule:evenodd;stroke-linecap:round;stroke-linejoin:round;stroke-miterlimit:1.5;"><g id="Vanilla-vct" serif:id="Vanilla vct"><path d="M168.093,5.29c48.706,40.546 17.633,123.386 17.633,123.386c-0,0 -9.986,-4.973 -34.696,-0.109c0,-0 -31.073,-82.84 17.633,-123.386" style="fill:url(#_Linear1);stroke:#000;stroke-width:10.32px;"/><path d="M332.76,123.81c-23.946,58.676 -112.302,54.067 -112.302,54.067c0,-0 1.726,-11.022 -10.372,-33.109c0,-0 69.59,-54.637 122.951,-20.447" style="fill:url(#_Linear2);stroke:#000;stroke-width:10.32px;"/><path d="M272.492,318.773c-63.168,-5.111 -85.453,-90.734 -85.453,-90.734c-0,-0 11.028,-1.683 28.431,-19.885c0,-0 73.1,49.844 56.619,111.037" style="fill:url(#_Linear3);stroke:#000;stroke-width:10.32px;"/><path d="M57.639,314.588c-14.201,-61.762 60.697,-108.861 60.697,-108.861c-0,-0 4.934,10.005 27.542,21.099c-0,0 -25.445,84.739 -88.758,87.504" style="fill:url(#_Linear4);stroke:#000;stroke-width:10.32px;"/><path d="M5.35,117.098c54.591,-32.188 122.108,24.992 122.108,24.992c-0,-0 -8.048,7.725 -11.799,32.627c0,0 -88.466,1.331 -110.22,-58.192" style="fill:url(#_Linear5);stroke:#000;stroke-width:10.32px;"/><path d="M155.341,123.813c2.105,-3.038 6.694,-5.385 11.856,-5.385c5.162,0 9.751,2.347 11.855,5.385c3.186,-2.053 8.384,-2.575 13.153,-0.725c4.769,1.851 8.051,5.663 8.753,9.225c3.782,-0.755 8.798,0.626 12.448,4.045c3.65,3.419 5.124,8.118 4.318,11.66c3.803,0.658 7.873,3.732 9.848,8.199c1.976,4.467 1.418,9.337 -0.774,12.321c3.244,1.971 5.749,6.27 5.749,11.105c-0,4.835 -2.505,9.134 -5.749,11.105c2.192,2.984 2.75,7.854 0.774,12.321c-1.975,4.467 -6.045,7.541 -9.848,8.199c0.806,3.543 -0.668,8.241 -4.318,11.66c-3.65,3.419 -8.666,4.8 -12.448,4.045c-0.702,3.562 -3.984,7.375 -8.753,9.225c-4.769,1.85 -9.967,1.328 -13.153,-0.725c-2.104,3.038 -6.693,5.385 -11.855,5.385c-5.162,-0 -9.751,-2.347 -11.856,-5.385c-3.185,2.053 -8.384,2.575 -13.153,0.725c-4.769,-1.85 -8.05,-5.663 -8.753,-9.225c-3.782,0.755 -8.798,-0.626 -12.448,-4.045c-3.65,-3.419 -5.124,-8.117 -4.318,-11.66c-3.802,-0.658 -7.873,-3.732 -9.848,-8.199c-1.975,-4.467 -1.418,-9.337 0.774,-12.321c-3.244,-1.971 -5.749,-6.27 -5.749,-11.105c0,-4.835 2.505,-9.134 5.749,-11.105c-2.192,-2.984 -2.749,-7.854 -0.774,-12.321c1.975,-4.467 6.046,-7.541 9.848,-8.199c-0.806,-3.542 0.668,-8.241 4.318,-11.66c3.65,-3.419 8.666,-4.8 12.448,-4.045c0.703,-3.562 3.984,-7.374 8.753,-9.225c4.769,-1.85 9.968,-1.328 13.153,0.725Z" style="fill:#fbf6c3;"/><path d="M155.341,123.813c2.105,-3.038 6.694,-5.385 11.856,-5.385c5.162,0 9.751,2.347 11.855,5.385c3.186,-2.053 8.384,-2.575 13.153,-0.725c4.769,1.851 8.051,5.663 8.753,9.225c3.782,-0.755 8.798,0.626 12.448,4.045c3.65,3.419 5.124,8.118 4.318,11.66c3.803,0.658 7.873,3.732 9.848,8.199c1.976,4.467 1.418,9.337 -0.774,12.321c3.244,1.971 5.749,6.27 5.749,11.105c-0,4.835 -2.505,9.134 -5.749,11.105c2.192,2.984 2.75,7.854 0.774,12.321c-1.975,4.467 -6.045,7.541 -9.848,8.199c0.806,3.543 -0.668,8.241 -4.318,11.66c-3.65,3.419 -8.666,4.8 -12.448,4.045c-0.702,3.562 -3.984,7.375 -8.753,9.225c-4.769,1.85 -9.967,1.328 -13.153,-0.725c-2.104,3.038 -6.693,5.385 -11.855,5.385c-5.162,-0 -9.751,-2.347 -11.856,-5.385c-3.185,2.053 -8.384,2.575 -13.153,0.725c-4.769,-1.85 -8.05,-5.663 -8.753,-9.225c-3.782,0.755 -8.798,-0.626 -12.448,-4.045c-3.65,-3.419 -5.124,-8.117 -4.318,-11.66c-3.802,-0.658 -7.873,-3.732 -9.848,-8.199c-1.975,-4.467 -1.418,-9.337 0.774,-12.321c-3.244,-1.971 -5.749,-6.27 -5.749,-11.105c0,-4.835 2.505,-9.134 5.749,-11.105c-2.192,-2.984 -2.749,-7.854 -0.774,-12.321c1.975,-4.467 6.046,-7.541 9.848,-8.199c-0.806,-3.542 0.668,-8.241 4.318,-11.66c3.65,-3.419 8.666,-4.8 12.448,-4.045c0.703,-3.562 3.984,-7.374 8.753,-9.225c4.769,-1.85 9.968,-1.328 13.153,0.725Zm35.551,10.743c0.573,2.587 2.124,4.856 4.331,6.332c2.278,1.523 5.068,2.078 7.755,1.542c1.062,-0.213 2.35,0.496 3.376,1.457c0.638,0.597 1.168,1.899 1.255,2.122c-0.534,2.674 0.015,5.455 1.531,7.73c1.569,2.355 4.037,3.961 6.825,4.444c0.919,0.159 1.695,1.127 2.173,2.206c0.331,0.75 0.714,1.541 0.346,2.042c-1.713,2.331 -2.367,5.275 -1.805,8.112c0.562,2.838 2.29,5.309 4.762,6.811c0.628,0.382 0.79,1.353 0.79,2.289c-0,0.936 -0.162,1.907 -0.79,2.289c-2.472,1.502 -4.2,3.973 -4.762,6.811c-0.562,2.838 0.092,5.781 1.805,8.112c0.368,0.501 -0.015,1.293 -0.346,2.042c-0.478,1.079 -1.254,2.047 -2.173,2.206c-2.788,0.483 -5.256,2.089 -6.825,4.444c-1.516,2.275 -2.065,5.056 -1.531,7.73c-0.087,0.224 -0.617,1.525 -1.255,2.122c-1.026,0.961 -2.314,1.67 -3.376,1.458c-2.687,-0.537 -5.477,0.018 -7.755,1.541c-2.207,1.477 -3.758,3.745 -4.331,6.332c-0.162,0.172 -1.398,1.454 -2.418,1.85c-1.39,0.54 -2.905,0.82 -3.833,0.222c-4.677,-3.015 -10.902,-1.777 -14.07,2.798c-0.566,0.817 -1.985,0.942 -3.374,0.942c-1.389,-0 -2.809,-0.125 -3.375,-0.942c-3.167,-4.575 -9.392,-5.813 -14.069,-2.798c-0.929,0.598 -2.443,0.318 -3.833,-0.222c-1.021,-0.396 -2.256,-1.678 -2.419,-1.85c-0.573,-2.587 -2.123,-4.855 -4.331,-6.332c-2.277,-1.523 -5.067,-2.078 -7.754,-1.541c-1.063,0.212 -2.351,-0.497 -3.376,-1.458c-0.638,-0.597 -1.168,-1.898 -1.256,-2.122c0.535,-2.674 -0.014,-5.455 -1.531,-7.73c-1.569,-2.355 -4.036,-3.961 -6.824,-4.444c-0.919,-0.159 -1.696,-1.127 -2.173,-2.206c-0.332,-0.749 -0.714,-1.541 -0.347,-2.042c1.713,-2.331 2.368,-5.274 1.806,-8.112c-0.563,-2.838 -2.291,-5.309 -4.763,-6.811c-0.628,-0.382 -0.789,-1.353 -0.789,-2.289c-0,-0.936 0.161,-1.907 0.789,-2.289c2.472,-1.502 4.2,-3.973 4.763,-6.811c0.562,-2.837 -0.093,-5.781 -1.806,-8.112c-0.367,-0.501 0.015,-1.292 0.347,-2.042c0.477,-1.079 1.254,-2.047 2.173,-2.206c2.788,-0.483 5.255,-2.089 6.824,-4.444c1.517,-2.275 2.066,-5.056 1.531,-7.73c0.088,-0.223 0.618,-1.525 1.256,-2.122c1.025,-0.961 2.313,-1.67 3.376,-1.457c2.687,0.536 5.477,-0.019 7.754,-1.542c2.208,-1.476 3.758,-3.745 4.331,-6.332c0.163,-0.172 1.398,-1.454 2.419,-1.85c1.39,-0.54 2.904,-0.82 3.833,-0.221c4.677,3.014 10.902,1.776 14.069,-2.798c0.566,-0.818 1.986,-0.942 3.375,-0.942c1.389,-0 2.808,0.124 3.374,0.942c3.168,4.574 9.393,5.812 14.07,2.798c0.928,-0.599 2.443,-0.319 3.833,0.221c1.02,0.396 2.256,1.678 2.418,1.85Z"/><ellipse cx="168.393" cy="180.141" rx="29.176" ry="29.417" style="fill:#fbb860;"/><ellipse cx="167.363" cy="181.183" rx="17.226" ry="17.258" style="fill:#fb8151;"/><path d="M167.363,163.925c9.507,-0 17.226,7.733 17.226,17.258c-0,9.525 -7.719,17.258 -17.226,17.258c-9.508,0 -17.226,-7.733 -17.226,-17.258c-0,-9.525 7.718,-17.258 17.226,-17.258Zm-0,9.392c4.328,0 7.833,3.529 7.833,7.866c0,4.336 -3.505,7.866 -7.833,7.866c-4.329,-0 -7.834,-3.53 -7.834,-7.866c-0,-4.337 3.505,-7.866 7.834,-7.866Z"/><path d="M167.898,140.563c21.924,-0 39.723,17.799 39.723,39.723c-0,21.923 -17.799,39.723 -39.723,39.723c-21.924,-0 -39.723,-17.8 -39.723,-39.723c-0,-21.924 17.799,-39.723 39.723,-39.723Zm-0,13.099c14.694,0 26.623,11.93 26.623,26.624c0,14.694 -11.929,26.623 -26.623,26.623c-14.694,0 -26.624,-11.929 -26.624,-26.623c0,-14.694 11.93,-26.624 26.624,-26.624Z"/></g><defs><linearGradient id="_Linear1" x1="0" y1="0" x2="1" y2="0" gradientUnits="userSpaceOnUse" gradientTransform="matrix(-64.5536,0.804863,-0.804863,-64.5536,185.459,74.47)"><stop offset="0" style="stop-color:#faec8e;stop-opacity:1"/><stop offset="0.19" style="stop-color:#fbe082;stop-opacity:1"/><stop offset="0.4" style="stop-color:#fbd477;stop-opacity:1"/><stop offset="1" style="stop-color:#fbcf72;stop-opacity:1"/></linearGradient><linearGradient id="_Linear2" x1="0" y1="0" x2="1" y2="0" gradientUnits="userSpaceOnUse" gradientTransform="matrix(-20.2596,-61.2974,61.2974,-20.2596,272.053,161.255)"><stop offset="0" style="stop-color:#faec8e;stop-opacity:1"/><stop offset="0.19" style="stop-color:#fbe082;stop-opacity:1"/><stop offset="0.4" style="stop-color:#fbd477;stop-opacity:1"/><stop offset="1" style="stop-color:#fbcf72;stop-opacity:1"/></linearGradient><linearGradient id="_Linear3" x1="0" y1="0" x2="1" y2="0" gradientUnits="userSpaceOnUse" gradientTransform="matrix(52.3187,-37.823,37.823,52.3187,218.464,272.207)"><stop offset="0" style="stop-color:#faec8e;stop-opacity:1"/><stop offset="0.19" style="stop-color:#fbe082;stop-opacity:1"/><stop offset="0.4" style="stop-color:#fbd477;stop-opacity:1"/><stop offset="1" style="stop-color:#fbcf72;stop-opacity:1"/></linearGradient><linearGradient id="_Linear4" x1="0" y1="0" x2="1" y2="0" gradientUnits="userSpaceOnUse" gradientTransform="matrix(51.8553,38.4557,-38.4557,51.8553,85.7184,249.022)"><stop offset="0" style="stop-color:#faec8e;stop-opacity:1"/><stop offset="0.19" style="stop-color:#fbe082;stop-opacity:1"/><stop offset="0.4" style="stop-color:#fbd477;stop-opacity:1"/><stop offset="1" style="stop-color:#fbcf72;stop-opacity:1"/></linearGradient><linearGradient id="_Linear5" x1="0" y1="0" x2="1" y2="0" gradientUnits="userSpaceOnUse" gradientTransform="matrix(-21.0027,61.0467,-61.0467,-21.0027,76.3346,124.068)"><stop offset="0" style="stop-color:#faec8e;stop-opacity:1"/><stop offset="0.19" style="stop-color:#fbe082;stop-opacity:1"/><stop offset="0.4" style="stop-color:#fbd477;stop-opacity:1"/><stop offset="1" style="stop-color:#fbcf72;stop-opacity:1"/></linearGradient></defs></svg>