<?xml version="1.0" encoding="UTF-8" standalone="no"?><!DOCTYPE svg PUBLIC "-//W3C//DTD SVG 1.1//EN" "http://www.w3.org/Graphics/SVG/1.1/DTD/svg11.dtd"><svg width="100%" height="100%" viewBox="0 0 772 785" version="1.1" xmlns="http://www.w3.org/2000/svg" xmlns:xlink="http://www.w3.org/1999/xlink" xml:space="preserve" xmlns:serif="http://www.serif.com/" style="fill-rule:evenodd;clip-rule:evenodd;stroke-linecap:square;stroke-linejoin:round;stroke-miterlimit:1.5;"><g><ellipse cx="385.956" cy="392.622" rx="375.745" ry="380.752" style="fill:#fff;"/><path d="M385.956,2.495c-212.519,0 -385.12,174.776 -385.12,390.127c-0,215.35 172.601,390.126 385.12,390.126c212.519,0 385.12,-174.776 385.12,-390.126c-0,-215.351 -172.601,-390.127 -385.12,-390.127Zm-0,9.375c207.379,0 375.745,170.609 375.745,380.752c-0,210.142 -168.366,380.751 -375.745,380.751c-207.38,0 -375.745,-170.609 -375.745,-380.751c-0,-210.143 168.365,-380.752 375.745,-380.752Z"/><path d="M135.836,558.417l200.699,-405.382l140.315,217.078l-123.614,-2.379" style="fill:none;stroke:#000;stroke-width:9.37px;"/><path d="M422.557,157.038l0,401.641l223.631,-0" style="fill:none;stroke:#51654e;stroke-width:9.37px;"/><path d="M422.557,157.038l0,401.641l223.631,-0" style="fill:none;stroke:#000;stroke-width:9.37px;"/><path d="M324.153,338.78c-15.866,0 -28.819,12.981 -28.819,29.059c-0,16.077 12.953,29.058 28.819,29.058c15.866,-0 28.82,-12.981 28.82,-29.058c0,-16.078 -12.954,-29.059 -28.82,-29.059Zm0,10.938c9.87,-0 17.883,8.119 17.883,18.121c-0,10.001 -8.013,18.12 -17.883,18.12c-9.869,0 -17.882,-8.119 -17.882,-18.12c0,-10.002 8.013,-18.121 17.882,-18.121Z" style="fill:#c0181c;"/></g></svg>